<svg width="512" height="512" viewBox="0 0 512 512" fill="none" xmlns="http://www.w3.org/2000/svg">
  <!-- Fundo do livro (marrom escuro) -->
  <path d="M96 32C70.4 32 48 54.4 48 80v352c0 25.6 22.4 48 48 48h320c25.6 0 48-22.4 48-48V80c0-25.6-22.4-48-48-48H96z" fill="#8B4513"/>
  
  <!-- Capa do livro (marrom claro) -->
  <path d="M128 64c-17.6 0-32 14.4-32 32v320c0 17.6 14.4 32 32 32h288c17.6 0 32-14.4 32-32V96c0-17.6-14.4-32-32-32H128z" fill="#CD853F"/>
  
  <!-- Capa arredondada (marrom mais claro) -->
  <path d="M128 64c-17.6 0-32 14.4-32 32v320c0 17.6 14.4 32 32 32h288c17.6 0 32-14.4 32-32V96c0-17.6-14.4-32-32-32H128z" fill="#CD853F"/>
  <path d="M412 96c0-17.6-14.4-32-32-32H128c-17.6 0-32 14.4-32 32v320c0 17.6 14.4 32 32 32" fill="#D2691E"/>
  
  <!-- Detalhes da capa -->
  <circle cx="152" cy="120" r="12" fill="#FFEBCD" opacity="0.5"/>
  <circle cx="152" cy="160" r="12" fill="#FFEBCD" opacity="0.5"/>
  <circle cx="408" cy="360" r="12" fill="#FFEBCD" opacity="0.5"/>
  <circle cx="408" cy="400" r="12" fill="#FFEBCD" opacity="0.5"/>
  
  <!-- Lombada do livro -->
  <path d="M96 40c-19.2 0-36 16.8-36 36v360c0 19.2 16.8 36 36 36h12V40H96z" fill="#8B4513"/>
  
  <!-- Páginas do livro (bege) -->
  <path d="M116 430c-7.2 0-12 4.8-12 12v20c0 7.2 4.8 12 12 12h304c19.2 0 36-16.8 36-36H116z" fill="#F5F5DC"/>
  
  <!-- Cruz dourada -->
  <g>
    <!-- Cruz base (ouro) -->
    <rect x="206" y="120" width="100" height="240" rx="24" fill="#FFD700"/>
    <rect x="156" y="170" width="200" height="90" rx="24" fill="#FFD700"/>
    
    <!-- Cruz (acabamento dourado claro) -->
    <rect x="256" y="120" width="50" height="240" rx="24" fill="#FFED7A"/>
    <rect x="256" y="170" width="100" height="90" rx="24" fill="#FFED7A"/>
  </g>
</svg> 